<?xml version="1.0" encoding="UTF-8"?>
<svg id="Layer_2" data-name="Layer 2" xmlns="http://www.w3.org/2000/svg" viewBox="0 0 315.89 706.39">
  <defs>
    <style>
      .cls-1 {
        fill: #000;
        stroke-width: 0px;
      }
    </style>
  </defs>
  <g id="Layer_1-2" data-name="Layer 1">
    <g>
      <path class="cls-1" d="M156.79,574.3c-38.32-.5-76.7.09-115.03-.25-15.3-.54-13.4-9.12-5.27-19.24,14.1-18.54,27.16-37.98,36.26-59.45,5.59-12.88,11.73-25.67,15.78-39.09,3.8-13.32,6.86-26.89,9.2-40.53,2.38-16.99,2.05-34.52,2.98-51.71.45-12.11.96-24.23.96-36.29.12-4.56.4-9.5,3.78-12.8,2.8-2.73,7.59-3.47,11.72-3.58,26.12-.18,52.24,0,78.37-.06,5.79-.03,13.12.32,16.47,5.44,2.66,3.89,2.66,9.98,2.65,14.83.16,24.25-.43,48.51.99,72.71,2.34,19.66,6.14,39.32,11.87,58.26,11.11,34.03,29.32,65.2,50.37,94,7.28,9.65,8.49,17.43-6.5,17.79-38.12.24-76.32.31-114.4-.03h-.2Z"/>
      <path class="cls-1" d="M276.09,114.26c.06,11.54-4.82,23.08-8.15,34.02-7.03,21.8-14.96,43.35-22.13,65.19-3.52,9.11-5.12,21.29-14.14,26.55-2.45,1.37-5.32,2.12-8.45,2.44-40.05.61-80.21-.77-120.23-.25-6.64.03-14.41.39-20.05-3.23-7.47-4.82-9.5-14.82-12.66-22.7-10.54-30.46-24.47-60.02-32.18-91.39-1.93-9.44-.57-21.3,7.95-26.78,6.58-4.36,15.95-4.47,22.68-.74,6.38,3.12,9.9,11.5,14.92,15.37,7.58,5.72,15.39-3.57,20.77-8.78,10.94-11.5,23.12-22.02,33.33-34.21,5.85-8,.4-13.5-5.35-20.23-5.23-6.36-7.36-14.71-6.42-23.03,3.27-28.83,39.66-36.13,54.95-11.89,5.83,9.27,5.63,21.48-.35,30.66-4.61,7.55-13.11,14.21-6.05,23.08,10.71,12.57,23.2,23.68,34.71,35.55,3.16,3.07,6.47,6.35,10.18,8.66,11.85,7.87,15.35-7.2,22.47-13.28,12.39-10.9,34.15-2.09,34.19,14.8v.18Z"/>
      <path class="cls-1" d="M158.2,662.19c-39.52,0-79.09.04-118.62-.09-5.91-.04-12.41-.35-17.04-4.34-4.07-3.37-6.22-9.33-7.92-15.27-2.31-7.85-3.68-15.99-2.1-23.81,2.27-11.36,9.64-22.07,19.52-27.7,8.19-4.78,18.67-5.62,28.19-5.69,69.46.57,138.95-.71,208.39.48,19.55,1.36,34.05,19.74,35.46,38.58.46,7.29-1.3,14.24-3.42,21.05-2.06,7.12-6.17,14.19-14.03,15.76-3.26.81-6.97.91-10.43.93-39.26.13-78.55.1-117.81.1h-.2Z"/>
      <path class="cls-1" d="M157.6,706.04c-45.4.03-90.86.03-136.28,0-8.6-.06-19.68.59-20.88-10.51-.89-6.01-.88-15.04,4.31-18.51,3.34-2.49,9.26-2.65,13.81-2.63,6.13,0,12.25-.02,18.39-.02,88.66.14,177.34-.28,266,.15,3.55.23,7.15.94,9.57,3.48,4.21,4.75,3.75,14.29,2.48,19.9-1.83,7.68-10.3,8.64-17.13,8.47-46.69-.13-93.4-.39-140.07-.33h-.2Z"/>
      <path class="cls-1" d="M157.66,300.48c-19.53,0-39.38-.06-59.02-.01-16.18.51-35.19-1.14-40.46-19.25-3.7-14.83,6.03-27.69,21.02-29.34,5.14-.78,10.53-.83,15.77-.86,44.02,0,88.05-.12,132.07.06,8.18.14,17.2,1.04,23.53,6.45,10.36,8.44,10.21,25.55.57,34.43-8.91,8.6-22.25,8.38-34.05,8.5-19.73.09-39.63.03-59.22.02h-.2Z"/>
    </g>
  </g>
</svg>